<svg width="45" height="48" viewBox="0 0 45 48" fill="none" xmlns="http://www.w3.org/2000/svg">
<mask id="path-1-outside-1_1971_1471" maskUnits="userSpaceOnUse" x="0.09375" y="0.914062" width="45" height="47" fill="black">
<rect fill="white" x="0.09375" y="0.914062" width="45" height="47"/>
<path d="M3.09375 44.9141C21.4387 25.5659 42.916 2.91406 42.916 2.91406L3.09375 44.9141ZM42.916 2.91406H7.68462H42.916ZM42.916 2.91406V40.0721V2.91406Z"/>
</mask>
<path d="M1.64241 43.538L0.266324 44.9893L3.169 47.7415L4.54509 46.2901L1.64241 43.538ZM42.916 2.91406H44.916V0.914062H42.916V2.91406ZM7.68462 0.914062H5.68462V4.91406H7.68462V0.914062ZM40.916 40.0721V42.0721H44.916V40.0721H40.916ZM4.54509 46.2901C13.7176 36.6161 23.6731 26.1161 31.3356 18.0346C35.1668 13.9938 38.4247 10.5577 40.7248 8.13181C41.8749 6.91885 42.7855 5.95844 43.4086 5.30126C43.7202 4.97268 43.9599 4.71989 44.1216 4.54926C44.2025 4.46394 44.2639 4.39917 44.3051 4.35572C44.3257 4.33399 44.3413 4.3176 44.3517 4.30664C44.3569 4.30115 44.3608 4.29705 44.3634 4.29428C44.3647 4.29293 44.3657 4.29185 44.3663 4.29118C44.3667 4.29084 44.3669 4.29058 44.3671 4.29041C44.3672 4.29023 44.3673 4.29015 42.916 2.91406C41.4646 1.53798 41.4646 1.53806 41.4644 1.53823C41.4642 1.53841 41.464 1.53867 41.4637 1.53901C41.463 1.53973 41.462 1.54071 41.4607 1.54211C41.4581 1.54485 41.4542 1.549 41.449 1.55447C41.4386 1.56543 41.4231 1.58183 41.4025 1.60355C41.3613 1.647 41.2998 1.71178 41.219 1.79709C41.0572 1.96772 40.8175 2.2205 40.506 2.54909C39.8829 3.20626 38.9722 4.16668 37.8222 5.37964C35.522 7.80556 32.2641 11.2417 28.4329 15.2824C20.7704 23.3639 10.8149 33.8639 1.64241 43.538L4.54509 46.2901ZM42.916 0.914062H7.68462V4.91406H42.916V0.914062ZM40.916 2.91406V40.0721H44.916V2.91406H40.916Z" fill="#303030" mask="url(#path-1-outside-1_1971_1471)"/>
</svg>
