 <svg width="98" viewBox="0 0 97 24" fill="none" xmlns="http://www.w3.org/2000/svg">
              <path
                class="logo-path"
                d="M0 22.7905H4.0678V13.794H10.8374V9.84495H4.0678V4.76752H11.1639V0.818501H0L0 22.7905Z"
                fill="#fff"
              />
              <path
                class="logo-path"
                d="M24.3157 19.3762C20.0698 19.3762 16.8334 15.9912 16.8334 11.8343C16.8334 7.73678 20.0401 4.38165 24.3454 4.38165C28.6508 4.38165 31.8574 7.73678 31.8574 11.8343C31.8574 15.9318 28.6805 19.3762 24.3157 19.3762ZM24.3454 0.432632C17.7835 0.432632 12.7656 5.56925 12.7656 11.9234C12.7656 18.2777 17.8132 23.3252 24.3454 23.3252C30.8777 23.3252 35.9253 18.2777 35.9253 11.9234C35.9253 5.56925 30.9074 0.432632 24.3454 0.432632"
                fill="#fff"
              />
              <path
                class="logo-path"
                d="M50.0536 7.7965C50.0536 5.68836 49.1925 0.81899 41.7992 0.81899H35.4453V4.75958H39.5463V4.76782H41.918C42.868 4.76782 45.9858 4.8571 45.9858 8.03405C45.9858 11.2112 42.868 11.3001 41.918 11.3001H39.5463V14.6851H39.5723L45.2731 22.791H50.2912L44.1152 14.6851C47.7079 14.3288 50.0536 11.3001 50.0536 7.7965Z"
                fill="#fff"
              />
              <path
                class="logo-path"
                d="M59.5618 18.8417H56.9194V13.2298H59.5618C62.7388 13.2298 63.0357 15.249 63.0357 16.0803C63.0357 18.812 60.0367 18.8417 59.5618 18.8417ZM56.9194 4.76752H58.8196C59.7101 4.76752 61.6996 4.88649 61.6996 7.02433C61.6996 7.58834 61.4918 9.28094 58.8196 9.28094H56.9194V4.76752ZM63.3624 10.795C63.9563 10.4683 65.7674 9.34033 65.7674 6.6086C65.7674 0.848387 59.5024 0.818694 58.1365 0.818694H52.8516V22.7905H58.3443C65.3812 22.7905 67.1035 19.2869 67.1035 16.11C67.1035 13.6455 65.7378 11.5967 63.3624 10.795"
                fill="#fff"
              />
              <path class="logo-path" d="M69.6172 22.7905H73.685V0.900106H69.6172V22.7905Z" fill="#fff" />

              <path
                class="logo-path"
                d="M96.0055 0.903645H91.3005L86.1248 8.46125L80.9786 0.903645H76.2734L83.7724 11.784L76.2734 22.6646H80.9786L86.1248 15.1364L91.3005 22.6646H96.0055L88.4774 11.784L96.0055 0.903645Z"
                fill="#fff"
              />
            </svg>