<svg xmlns="http://www.w3.org/2000/svg" width="0" height="0">
    <symbol id="icon-arrow" viewBox="0 0 47 47">
        <path d="M5.76777 2.23223L4 0.464466L0.464466 4L2.23223 5.76777L5.76777 2.23223ZM44 44V46.5H46.5V44H44ZM46.5 9.49608V6.99608H41.5V9.49608L46.5 9.49608ZM9.49608 41.5H6.99608V46.5H9.49608L9.49608 41.5ZM2.23223 5.76777C11.2147 14.7502 21.2159 24.7515 28.9695 32.5051C32.8328 36.3683 36.1762 39.7117 38.5087 42.0443C39.6114 43.1469 40.6834 44.2189 41.2504 44.7859C41.2773 44.8128 41.283 44.8185 41.3093 44.8448C41.319 44.8545 41.3286 44.8641 41.3381 44.8736C41.3476 44.8832 41.3571 44.8926 41.3665 44.902C41.3852 44.9207 41.4038 44.9393 41.4219 44.9575C41.4468 44.9824 41.4513 44.9868 41.4756 45.0112C41.4844 45.02 41.4932 45.0287 41.5018 45.0373C41.5105 45.046 41.5191 45.0546 41.5276 45.0631C41.5361 45.0716 41.5445 45.08 41.5529 45.0884C41.5612 45.0968 41.5695 45.1051 41.5777 45.1133C41.5894 45.1249 41.6635 45.1991 41.6728 45.2083C41.8274 45.3629 41.8648 45.4003 41.9804 45.5159C42.1449 45.6804 42.0446 45.5802 42.1685 45.704C42.1803 45.7158 42.2149 45.7504 42.2162 45.7517C42.2446 45.7801 42.2024 45.738 42.2282 45.7637C42.2289 45.7644 42.2295 45.765 42.23 45.7655C42.2305 45.766 42.2309 45.7664 42.2312 45.7668C42.2316 45.7671 42.2318 45.7673 42.232 45.7675C42.2321 45.7677 42.2322 45.7678 44 44C45.7678 42.2322 45.7677 42.2321 45.7675 42.232C45.7673 42.2318 45.7671 42.2316 45.7668 42.2312C45.7664 42.2309 45.766 42.2305 45.7655 42.23C45.765 42.2295 45.7644 42.2289 45.7637 42.2282C45.7637 42.2282 45.7594 42.2239 45.7587 42.2232C45.7577 42.2222 45.7566 42.2211 45.7555 42.2199C45.7543 42.2188 45.7531 42.2175 45.7517 42.2162C45.7504 42.2149 45.7158 42.1803 45.704 42.1685C45.5801 42.0446 45.6804 42.1449 45.5159 41.9804C45.4003 41.8648 45.3629 41.8274 45.2083 41.6728C45.1424 41.6068 45.1816 41.646 45.1133 41.5777C45.1051 41.5695 45.0968 41.5612 45.0884 41.5529C45.08 41.5445 45.0716 41.5361 45.0631 41.5276C45.0546 41.5191 45.046 41.5105 45.0373 41.5018C45.0287 41.4932 45.02 41.4844 45.0112 41.4756C44.9868 41.4513 44.9824 41.4468 44.9575 41.4219C44.9484 41.4128 44.9392 41.4037 44.9299 41.3944C44.9207 41.3852 44.9114 41.3759 44.902 41.3665C44.8832 41.3477 44.8642 41.3287 44.8448 41.3093C44.7907 41.2552 44.8406 41.3051 44.7859 41.2504C44.2186 40.6831 43.1472 39.6116 42.0443 38.5087C39.7119 36.1763 36.3682 32.8326 32.5051 28.9695C24.7547 21.2192 14.747 11.2115 5.76777 2.23223L2.23223 5.76777ZM46.5 44V9.49608L41.5 9.49608V44H46.5ZM44 41.5H9.49608L9.49608 46.5H44V41.5Z" fill="currentColor"/>
    </symbol>
    <symbol id="icon-arrow-up" viewBox="0 0 35 35">
        <path d="M4.06066 33.0607L3 34.1213L0.87868 32L1.93934 30.9393L4.06066 33.0607ZM33 2V0.5H34.5V2H33ZM34.5 27.8779V29.3779H31.5V27.8779H34.5ZM7.12206 3.5H5.62206V0.5H7.12206V3.5ZM1.93934 30.9393C8.68607 24.1926 16.1672 16.7114 21.9923 10.8864C24.8737 8.005 27.4134 5.46529 29.1467 3.73197C30.0897 2.78895 30.6616 2.21704 31.2029 1.67573C31.4971 1.38162 31.5711 1.30757 31.7505 1.12822C31.8318 1.04691 31.7587 1.12002 31.8324 1.04626C31.8809 0.997783 31.8507 1.02793 31.8915 0.987157C31.9074 0.971317 31.9193 0.959363 31.9273 0.951369C31.9313 0.947372 31.9343 0.944365 31.9363 0.942357C31.9368 0.941855 31.9373 0.941415 31.9376 0.941038C31.938 0.940661 31.9383 0.940347 31.9386 0.940095C31.9388 0.939844 31.939 0.939655 31.9392 0.939529C31.9393 0.939403 31.9393 0.93934 33 2C34.0607 3.06066 34.0606 3.06072 34.0605 3.06085C34.0603 3.06098 34.0602 3.06116 34.0599 3.06142C34.0597 3.06167 34.0593 3.06198 34.059 3.06236C34.0586 3.06274 34.0581 3.06317 34.0576 3.06368C34.0449 3.07644 34.0634 3.05793 34.0486 3.07269C34.0406 3.08068 34.0287 3.09264 34.0128 3.10848C34.0053 3.116 33.969 3.15236 33.9537 3.16758C33.88 3.24134 33.9531 3.16823 33.8718 3.24954C33.8339 3.28744 33.8861 3.23518 33.8478 3.27355C33.8395 3.28179 33.8311 3.29025 33.8224 3.29895C33.81 3.31128 33.8084 3.31295 33.7956 3.32574C33.791 3.33032 33.7864 3.33496 33.7817 3.33966C33.777 3.34435 33.7722 3.3491 33.7674 3.35391C33.729 3.39236 33.6868 3.43456 33.6411 3.48026C33.6315 3.48985 33.5812 3.54015 33.5698 3.55153C33.5005 3.62086 33.5643 3.55703 33.4932 3.62812C33.4528 3.66854 33.4535 3.66782 33.4113 3.70998C33.3915 3.72977 33.3887 3.73264 33.3685 3.75287C33.3612 3.76013 33.3539 3.76744 33.3465 3.7748C33.3392 3.78216 33.3317 3.78958 33.3243 3.79705C32.8833 4.23798 32.1107 5.01065 31.268 5.85329C29.4981 7.62318 27.0316 10.0897 24.1136 13.0077C18.2942 18.8272 10.8018 26.3196 4.06066 33.0607L1.93934 30.9393ZM34.5 2V27.8779H31.5V2H34.5ZM33 3.5H7.12206V0.5H33V3.5Z" fill="currentColor"/>
    </symbol>

      <symbol fill="none" xmlns="http://www.w3.org/2000/svg" viewBox="0 0 28 25" id="icon-arrow-right">
    <mask id="path-1-outside-1_1971_1609" maskUnits="userSpaceOnUse" x="-0.909961" y="-1.23798" width="29.0996" height="27.4447" fill="black">
      <rect fill="white" x="-0.909961" y="-1.23798" width="29.0996" height="27.4447"></rect>
      <path d="M2 12.4844C13.2189 12.4844 26.3535 12.4844 26.3535 12.4844ZM26.3535 12.4844L15.5805 2.32409ZM26.3535 12.4844L15.5805 22.6447Z"></path>
    </mask>
    <path d="M2 11.5141L0.971173 11.5141L0.971173 13.4547L2 13.4547V11.5141ZM26.3535 12.4844L27.0809 13.1705L27.8084 12.4844L27.0809 11.7983L26.3535 12.4844ZM16.308 1.63797L15.5805 0.951855L14.1255 2.32409L14.853 3.01021L16.308 1.63797ZM14.853 21.9585L14.1255 22.6447L15.5805 24.0169L16.308 23.3308L14.853 21.9585ZM2 13.4547C7.60946 13.4547 13.6978 13.4547 18.3838 13.4547C20.7268 13.4547 22.7192 13.4547 24.1259 13.4547C24.8292 13.4547 25.3861 13.4547 25.7672 13.4547C25.9577 13.4547 26.1043 13.4547 26.2032 13.4547C26.2527 13.4547 26.2902 13.4547 26.3154 13.4547C26.328 13.4547 26.3375 13.4547 26.3439 13.4547C26.347 13.4547 26.3495 13.4547 26.3511 13.4547C26.352 13.4547 26.3523 13.4547 26.3529 13.4547C26.3531 13.4547 26.3532 13.4547 26.3533 13.4547C26.3534 13.4547 26.3535 13.4547 26.3535 12.4844C26.3535 11.5141 26.3534 11.5141 26.3533 11.5141C26.3532 11.5141 26.3531 11.5141 26.3529 11.5141C26.3525 11.5141 26.3518 11.5141 26.3511 11.5141C26.3494 11.5141 26.3471 11.5141 26.3439 11.5141C26.3375 11.5141 26.328 11.5141 26.3154 11.5141C26.2902 11.5141 26.2527 11.5141 26.2032 11.5141C26.1043 11.5141 25.9577 11.5141 25.7672 11.5141C25.3861 11.5141 24.8292 11.5141 24.1259 11.5141C22.7192 11.5141 20.7268 11.5141 18.3838 11.5141C13.6978 11.5141 7.60946 11.5141 2 11.5141V13.4547ZM27.0809 11.7983L16.308 1.63797L14.853 3.01021L25.626 13.1705L27.0809 11.7983ZM25.626 11.7983L14.853 21.9585L16.308 23.3308L27.0809 13.1705L25.626 11.7983Z" fill="#303030" mask="url(#path-1-outside-1_1971_1609)"></path>
  </symbol>

    <symbol id="icon-accordion" viewBox="0 0 28 28" fill="none">
        <rect x="27.75" y="13.75" width="0.8" height="27.5" transform="rotate(90 27.75 13.75)" fill="currentColor" stroke="currentColor" stroke-width="0.8"/>
        <rect x="14.25" y="27.75" width="0.8" height="27.5" transform="rotate(-180 14.25 27.75)" fill="currentColor" stroke="currentColor" stroke-width="0.8"/>
    </symbol>

    <symbol xmlns="http://www.w3.org/2000/svg" id="icon-arrow-down" viewBox="0 0 14 15" fill="none">
        <mask id="path-1-outside-1_1717_413" maskUnits="userSpaceOnUse" x="-0.602393" y="-0.589995" width="15.5563" height="15.5563" fill="black">
        <rect fill="white" x="-0.602393" y="-0.589995" width="15.5563" height="15.5563"/>
        <path d="M7.17578 0.824219C7.17578 6.67705 7.17578 13.5292 7.17578 13.5292L7.17578 0.824219ZM7.17578 13.5292L12.7959 7.90907L7.17578 13.5292ZM7.17578 13.5292L1.55562 7.90907L7.17578 13.5292Z"/>
        </mask>
        <path d="M7.69747 0.824219L7.69747 0.302526L6.65409 0.302526L6.65409 0.824219L7.69747 0.824219ZM7.17578 13.5292L6.80689 13.8981L7.17578 14.267L7.54467 13.8981L7.17578 13.5292ZM13.1648 8.27796L13.5337 7.90907L12.7959 7.17129L12.4271 7.54018L13.1648 8.27796ZM1.92451 7.54018L1.55562 7.17129L0.817832 7.90907L1.18672 8.27796L1.92451 7.54018ZM6.65409 0.824219C6.65409 3.75063 6.65409 6.92689 6.65409 9.37154C6.65409 10.5939 6.65409 11.6333 6.65409 12.3671C6.65409 12.7341 6.65409 13.0246 6.65409 13.2234C6.65409 13.3228 6.65409 13.3992 6.65409 13.4509C6.65409 13.4767 6.65409 13.4963 6.65409 13.5094C6.65409 13.516 6.65409 13.5209 6.65409 13.5242C6.65409 13.5259 6.65409 13.5272 6.65409 13.528C6.65409 13.5284 6.65409 13.5287 6.65409 13.5289C6.65409 13.529 6.65409 13.5291 6.65409 13.5292C6.65409 13.5292 6.65409 13.5292 7.17578 13.5292C7.69747 13.5292 7.69747 13.5292 7.69747 13.5292C7.69747 13.5291 7.69747 13.529 7.69747 13.5289C7.69747 13.5287 7.69747 13.5284 7.69747 13.528C7.69747 13.5271 7.69747 13.5259 7.69747 13.5242C7.69747 13.5209 7.69747 13.516 7.69747 13.5094C7.69747 13.4963 7.69747 13.4767 7.69747 13.4509C7.69747 13.3992 7.69747 13.3228 7.69747 13.2234C7.69747 13.0246 7.69747 12.7341 7.69747 12.3671C7.69747 11.6333 7.69747 10.5939 7.69747 9.37154C7.69747 6.92689 7.69747 3.75063 7.69747 0.824219L6.65409 0.824219ZM7.54467 13.8981L13.1648 8.27796L12.4271 7.54018L6.80689 13.1603L7.54467 13.8981ZM7.54467 13.1603L1.92451 7.54018L1.18672 8.27796L6.80689 13.8981L7.54467 13.1603Z" fill="#303030" mask="url(#path-1-outside-1_1717_413)"/>
    </symbol>


</svg>